<?xml version="1.0" encoding="utf-8"?>
<!-- Generator: Adobe Illustrator 16.0.0, SVG Export Plug-In . SVG Version: 6.00 Build 0)  -->
<!DOCTYPE svg PUBLIC "-//W3C//DTD SVG 1.1//EN" "http://www.w3.org/Graphics/SVG/1.1/DTD/svg11.dtd">
<svg version="1.1" id="Layer_1" xmlns="http://www.w3.org/2000/svg" xmlns:xlink="http://www.w3.org/1999/xlink" x="0px" y="0px"
	 width="100px" height="100px" viewBox="0 0 100 100" enable-background="new 0 0 100 100" xml:space="preserve">
<g>
	<path fill="#C32126" d="M16.225,13.652c5.694-3.164,12.757-4.306,18.651-4.626c-0.041-3.054,0.055-5.362,0.136-6.671
		C27.913,4.719,21.52,8.618,16.225,13.652z"/>
	<path fill="#C32126" d="M14.516,51.294c0-0.914,0.28-1.762,0.759-2.468c-4.116-5.461-8.813-13.308-9.401-21.228
		c-3.371,6.73-5.275,14.32-5.275,22.357c0,10.276,3.103,19.827,8.417,27.78c0.433-3.124,2.041-12.256,6.978-23.18
		C15.093,53.753,14.516,52.596,14.516,51.294z"/>
	<path fill="#C32126" d="M65.642,78.673c-0.067,0.156-0.158,0.297-0.241,0.439c7.276,6.992,13.514,10.455,14.977,11.221
		c5.869-4.543,10.704-10.358,14.093-17.026C90.823,75.384,80.392,80.269,65.642,78.673z"/>
	<path fill="#C32126" d="M63.847,80.699c-0.662,0.396-1.434,0.64-2.264,0.64c-2.377,0-4.305-1.881-4.396-4.231
		c-10.46-2.748-22.529-8.886-35.562-20.927c0,0-0.337-0.333-0.874-0.894c-0.559,0.255-1.173,0.403-1.826,0.403
		c-0.159,0-0.312-0.026-0.467-0.047c-3.241,7.121-5.915,15.228-7.726,24.512c9.197,12.145,23.794,19.991,40.237,19.991
		c10.152,0,19.595-3.001,27.504-8.147C72.925,88.563,68.084,84.748,63.847,80.699z"/>
	<path fill="#C32126" d="M75.18,7.517c-2.299,0.514-6.44,1.624-11.583,3.719c0.112,0.391,0.192,0.793,0.192,1.221
		c0,0.305-0.03,0.602-0.091,0.891c18.374,5.977,28.71,15.672,34.49,24.453C94.775,24.959,86.373,14.142,75.18,7.517z"/>
	<path fill="#C32126" d="M40.603,22.073c4.254-3.269,9.024-6.32,14.42-9.011c-0.021-0.14-0.036-0.277-0.042-0.419
		c-6.434-1.608-12.283-2.084-17.435-1.872c0.07,3.659,0.334,7.133,0.695,10.501C39.118,21.31,39.931,21.596,40.603,22.073z"/>
	<path fill="#C32126" d="M99.4,43.809c-5.998-11.356-16.667-18.158-16.667-18.158c-7.026-4.823-13.664-8.207-19.868-10.533
		c-0.807,1.048-2.062,1.735-3.49,1.735c-1.521,0-2.866-0.771-3.659-1.94c-4.327,2.287-8.983,5.219-13.645,8.941
		c0.246,0.548,0.389,1.153,0.389,1.792c0,1.931-1.256,3.553-2.995,4.143c3.662,19.563,11.971,33.597,20.184,43.221
		c0.585-0.288,1.236-0.469,1.934-0.469c2.2,0,4.01,1.609,4.347,3.705c8.292,1.114,20.665,0.969,30.319-6.839
		c2.333-5.788,3.62-12.099,3.62-18.712C99.869,48.356,99.713,46.055,99.4,43.809z"/>
	<path fill="#C32126" d="M59.375,8.054c1.356,0,2.554,0.625,3.364,1.583c3.197-1.255,6.559-2.405,10.139-3.403
		C65.89,2.578,57.939,0.499,49.499,0.499c-4.078,0-8.035,0.496-11.833,1.406c-0.114,2.401-0.154,4.741-0.14,7.029
		c5.323-0.088,9.164,0.419,9.164,0.419c3.002,0.466,5.84,1.015,8.54,1.642C55.836,9.288,57.454,8.054,59.375,8.054z"/>
	<path fill="#C32126" d="M35.789,21.892c-0.523-4.138-0.77-7.848-0.87-10.951c-14.231,1.259-22.555,7.53-22.555,7.53
		s-0.434,0.236-1.034,0.537c-1.367,1.737-2.624,3.563-3.751,5.473c0.232,2.766,1.568,12.477,9.066,23.07
		c0.665-0.405,1.443-0.651,2.281-0.651c0.31,0,0.611,0.032,0.902,0.093c3.581-6.29,8.313-12.83,14.528-18.952
		c-0.452-0.689-0.719-1.511-0.719-2.395C33.638,24.045,34.506,22.659,35.789,21.892z"/>
	<path fill="#C32126" d="M57.945,74.46c-12.31-14.386-18.149-30.842-20.85-44.527c-0.291-0.063-0.569-0.157-0.836-0.276
		c-5.047,5.08-9.888,11.237-14.09,18.677c0.719,0.782,1.17,1.815,1.17,2.96c0,1.135-0.442,2.157-1.149,2.938
		c7.3,7.596,18.222,14.991,34.612,20.025c0,0,0.396,0.123,1.068,0.323C57.897,74.54,57.918,74.499,57.945,74.46z"/>
</g>
</svg>
