<?xml version="1.0" encoding="utf-8"?>
<!-- Generator: Adobe Illustrator 16.0.0, SVG Export Plug-In . SVG Version: 6.00 Build 0)  -->
<!DOCTYPE svg PUBLIC "-//W3C//DTD SVG 1.1//EN" "http://www.w3.org/Graphics/SVG/1.1/DTD/svg11.dtd">
<svg version="1.1" id="Layer_1" xmlns="http://www.w3.org/2000/svg" xmlns:xlink="http://www.w3.org/1999/xlink" x="0px" y="0px"
	 width="198.25px" height="66px" viewBox="0 0 198.25 66" enable-background="new 0 0 198.25 66" xml:space="preserve">
<g>
	<path d="M86.12,32.659h-2.243l-2.533-8.319l-2.533,8.319h-2.243l-3.673-13.71h2.803l2.126,8.646l2.513-8.646h2.011l2.513,8.646
		l2.146-8.646h2.803L86.12,32.659z"/>
	<path d="M91.528,32.659v-13.71h9.067v2.388h-6.38v3.216h5.433v2.388h-5.433v3.332h6.38v2.388H91.528z"/>
	<path d="M108.982,32.659h-5.761v-13.71h5.529c2.688,0,4.253,1.502,4.253,3.851c0,1.521-1.005,2.503-1.702,2.831
		c0.832,0.385,1.895,1.252,1.895,3.081C113.197,31.272,111.438,32.659,108.982,32.659z M108.538,21.336h-2.629v3.158h2.629
		c1.141,0,1.778-0.636,1.778-1.579C110.316,21.971,109.679,21.336,108.538,21.336z M108.712,26.901h-2.803v3.37h2.803
		c1.218,0,1.798-0.771,1.798-1.695S109.93,26.901,108.712,26.901z"/>
	<path d="M127.769,32.659V26.92h-4.659v5.738h-2.687v-13.71h2.687v5.604h4.659v-5.604h2.688v13.71H127.769z"/>
	<path d="M141.995,31.272c-0.967,0.962-2.146,1.502-3.712,1.502c-1.566,0-2.765-0.54-3.731-1.502
		c-1.393-1.387-1.354-3.101-1.354-5.469s-0.039-4.083,1.354-5.469c0.967-0.963,2.165-1.502,3.731-1.502
		c1.565,0,2.745,0.539,3.712,1.502c1.392,1.386,1.372,3.1,1.372,5.469S143.387,29.886,141.995,31.272z M140.004,21.952
		c-0.387-0.443-0.986-0.732-1.721-0.732c-0.735,0-1.354,0.289-1.74,0.732c-0.522,0.578-0.657,1.213-0.657,3.851
		s0.135,3.274,0.657,3.852c0.387,0.443,1.005,0.731,1.74,0.731c0.734,0,1.334-0.289,1.721-0.731
		c0.521-0.578,0.676-1.213,0.676-3.852S140.525,22.53,140.004,21.952z"/>
	<path d="M149.898,32.774c-2.088,0-3.673-0.443-5.026-1.811l1.74-1.733c0.87,0.867,2.049,1.155,3.325,1.155
		c1.585,0,2.436-0.597,2.436-1.694c0-0.481-0.135-0.886-0.425-1.155c-0.271-0.25-0.58-0.385-1.218-0.481l-1.663-0.231
		c-1.18-0.173-2.049-0.539-2.668-1.136c-0.657-0.655-0.986-1.541-0.986-2.696c0-2.445,1.817-4.159,4.795-4.159
		c1.895,0,3.268,0.462,4.446,1.598l-1.701,1.675c-0.87-0.828-1.914-0.943-2.822-0.943c-1.431,0-2.127,0.79-2.127,1.733
		c0,0.347,0.116,0.712,0.406,0.982c0.271,0.25,0.715,0.462,1.276,0.539l1.624,0.231c1.256,0.173,2.049,0.52,2.629,1.059
		c0.734,0.693,1.063,1.695,1.063,2.908C155.003,31.272,152.779,32.774,149.898,32.774z"/>
	<path d="M162.79,21.336v11.323h-2.688V21.336h-3.596v-2.388h9.879v2.388H162.79z"/>
	<path d="M168.567,32.659v-13.71h2.688v13.71H168.567z"/>
	<path d="M182.603,32.659l-5.452-8.415v8.415h-2.688v-13.71h2.397l5.452,8.396v-8.396h2.687v13.71H182.603z"/>
	<path d="M195.687,31.195c-0.985,1.021-2.281,1.579-3.847,1.579c-1.508,0-2.745-0.54-3.712-1.502
		c-1.393-1.387-1.354-3.101-1.354-5.469s-0.039-4.083,1.354-5.469c0.967-0.963,2.165-1.502,3.712-1.502
		c1.914,0,2.978,0.52,4.215,1.752l-1.817,1.81c-0.773-0.771-1.334-1.175-2.397-1.175c-0.734,0-1.334,0.289-1.721,0.732
		c-0.522,0.578-0.657,1.213-0.657,3.851s0.135,3.293,0.657,3.871c0.387,0.443,0.986,0.712,1.721,0.712
		c0.812,0,1.392-0.289,1.836-0.77c0.445-0.481,0.6-1.194,0.6-1.868v-0.481h-2.436v-2.233h5.123v1.964
		C196.963,28.98,196.653,30.194,195.687,31.195z"/>
	<path d="M83.246,49.674c-0.277,0.508-0.625,0.935-1.043,1.281c-0.419,0.347-0.893,0.613-1.421,0.799
		c-0.528,0.187-1.102,0.279-1.72,0.279c-0.683,0-1.324-0.121-1.923-0.365s-1.131-0.598-1.595-1.06
		c-0.322-0.321-0.57-0.655-0.744-1.002c-0.174-0.347-0.303-0.734-0.386-1.165c-0.084-0.43-0.132-0.917-0.145-1.463
		c-0.013-0.546-0.02-1.185-0.02-1.917c0-0.731,0.006-1.37,0.02-1.916c0.013-0.546,0.061-1.033,0.145-1.464
		c0.083-0.43,0.212-0.818,0.386-1.165c0.174-0.347,0.422-0.681,0.744-1.001c0.464-0.463,0.996-0.815,1.595-1.06
		s1.24-0.366,1.923-0.366c0.618,0,1.191,0.094,1.72,0.279c0.528,0.187,1.002,0.453,1.421,0.8c0.418,0.347,0.767,0.773,1.043,1.28
		c0.277,0.508,0.474,1.082,0.59,1.724h-1.508c-0.181-0.848-0.554-1.521-1.121-2.022c-0.567-0.5-1.282-0.751-2.145-0.751
		c-0.451,0-0.886,0.084-1.305,0.251c-0.419,0.167-0.776,0.404-1.073,0.712c-0.219,0.219-0.393,0.453-0.522,0.703
		c-0.129,0.251-0.226,0.553-0.29,0.905c-0.064,0.354-0.106,0.777-0.125,1.271s-0.029,1.101-0.029,1.819
		c0,0.72,0.009,1.326,0.029,1.82s0.061,0.918,0.125,1.271c0.064,0.353,0.161,0.654,0.29,0.904c0.129,0.251,0.303,0.485,0.522,0.703
		c0.296,0.309,0.654,0.546,1.073,0.713c0.418,0.167,0.854,0.25,1.305,0.25c0.863,0,1.584-0.25,2.165-0.751
		c0.58-0.501,0.959-1.175,1.14-2.022h1.469C83.719,48.593,83.523,49.167,83.246,49.674z"/>
	<path d="M94.91,51.918l-1.102-3.101h-6.011l-1.102,3.101H85.13l5.064-13.712h1.237l5.044,13.712H94.91z M90.832,40.305l-2.59,7.241
		h5.141L90.832,40.305z"/>
	<path d="M107.473,51.918l-7.306-10.997v10.997h-1.469V38.206h1.392l7.306,10.958V38.206h1.469v13.712H107.473z"/>
	<path d="M120.867,51.918l-1.102-3.101h-6.011l-1.102,3.101h-1.565l5.064-13.712h1.237l5.044,13.712H120.867z M116.789,40.305
		l-2.59,7.241h5.141L116.789,40.305z"/>
	<path d="M134.193,46.41c-0.007,0.526-0.049,1.043-0.126,1.55c-0.077,0.508-0.21,0.992-0.396,1.454
		c-0.187,0.463-0.461,0.873-0.821,1.232c-0.412,0.411-0.915,0.726-1.508,0.944c-0.593,0.218-1.25,0.327-1.971,0.327h-4.716V38.206
		h4.716c0.721,0,1.378,0.108,1.971,0.327s1.096,0.533,1.508,0.943c0.36,0.359,0.635,0.755,0.821,1.185
		c0.187,0.431,0.319,0.88,0.396,1.349s0.119,0.95,0.126,1.444c0.006,0.494,0.01,0.979,0.01,1.454
		C134.203,45.383,134.199,45.884,134.193,46.41z M132.725,43.646c-0.007-0.417-0.036-0.815-0.088-1.194
		c-0.051-0.379-0.142-0.734-0.271-1.068s-0.309-0.623-0.541-0.867c-0.36-0.372-0.767-0.632-1.218-0.78
		c-0.451-0.147-0.946-0.221-1.488-0.221h-2.995v11.093h2.995c0.542,0,1.037-0.074,1.488-0.222s0.857-0.407,1.218-0.78
		c0.232-0.243,0.412-0.549,0.541-0.914c0.129-0.366,0.22-0.758,0.271-1.175c0.052-0.417,0.081-0.851,0.088-1.3
		c0.006-0.449,0.009-0.887,0.009-1.31C132.733,44.484,132.73,44.063,132.725,43.646z"/>
	<path d="M145.49,51.918l-1.102-3.101h-6.011l-1.102,3.101h-1.566l5.064-13.712h1.237l5.044,13.712H145.49z M141.412,40.305
		l-2.59,7.241h5.142L141.412,40.305z"/>
</g>
<g>
	<path fill="#C32127" d="M11.319,9.693c3.669-2.039,8.22-2.775,12.019-2.981c-0.026-1.968,0.035-3.455,0.087-4.298
		C18.851,3.937,14.731,6.449,11.319,9.693z"/>
	<path fill="#C32127" d="M10.218,33.949c0-0.589,0.18-1.136,0.489-1.59c-2.652-3.519-5.679-8.575-6.058-13.679
		C2.477,23.017,1.25,27.907,1.25,33.086c0,6.622,2,12.776,5.424,17.901c0.279-2.013,1.315-7.897,4.496-14.937
		C10.59,35.533,10.218,34.787,10.218,33.949z"/>
	<path fill="#C32127" d="M43.162,51.591c-0.043,0.101-0.101,0.191-0.155,0.283c4.689,4.506,8.708,6.737,9.65,7.23
		c3.782-2.928,6.897-6.675,9.081-10.972C59.389,49.472,52.667,52.619,43.162,51.591z"/>
	<path fill="#C32127" d="M42.005,52.896c-0.426,0.255-0.923,0.412-1.458,0.412c-1.531,0-2.773-1.212-2.832-2.727
		c-6.741-1.771-14.518-5.726-22.916-13.484c0,0-0.217-0.215-0.563-0.576c-0.36,0.164-0.756,0.26-1.176,0.26
		c-0.103,0-0.201-0.017-0.301-0.03c-2.088,4.589-3.811,9.813-4.978,15.795c5.926,7.826,15.333,12.882,25.928,12.882
		c6.542,0,12.626-1.934,17.724-5.25C47.856,57.964,44.736,55.506,42.005,52.896z"/>
	<path fill="#C32127" d="M49.309,5.739c-1.482,0.331-4.15,1.046-7.464,2.396c0.072,0.252,0.125,0.511,0.125,0.787
		c0,0.197-0.02,0.388-0.059,0.574c11.84,3.852,18.5,10.099,22.224,15.757C61.936,16.979,56.521,10.008,49.309,5.739z"/>
	<path fill="#C32127" d="M27.028,15.119c2.741-2.106,5.815-4.072,9.292-5.807c-0.013-0.09-0.022-0.178-0.027-0.27
		c-4.146-1.037-7.915-1.343-11.234-1.207c0.045,2.358,0.215,4.596,0.448,6.767C26.071,14.627,26.595,14.812,27.028,15.119z"/>
	<path fill="#C32127" d="M64.916,29.125c-3.864-7.318-10.74-11.701-10.74-11.701c-4.528-3.107-8.805-5.288-12.803-6.787
		c-0.519,0.675-1.329,1.118-2.249,1.118c-0.98,0-1.846-0.497-2.357-1.25c-2.789,1.474-5.789,3.363-8.792,5.762
		c0.159,0.353,0.25,0.743,0.25,1.155c0,1.244-0.81,2.29-1.93,2.669c2.359,12.605,7.714,21.649,13.006,27.85
		c0.377-0.186,0.797-0.302,1.246-0.302c1.417,0,2.583,1.037,2.8,2.388c5.344,0.718,13.317,0.624,19.538-4.407
		c1.503-3.729,2.333-7.796,2.333-12.058C65.218,32.055,65.117,30.572,64.916,29.125z"/>
	<path fill="#C32127" d="M39.124,6.085c0.874,0,1.646,0.402,2.168,1.02c2.061-0.809,4.227-1.55,6.533-2.193
		C43.322,2.557,38.2,1.217,32.76,1.217c-2.627,0-5.178,0.319-7.625,0.906c-0.073,1.547-0.099,3.055-0.09,4.529
		c3.43-0.057,5.905,0.27,5.905,0.27c1.935,0.3,3.764,0.654,5.503,1.058C36.844,6.88,37.887,6.085,39.124,6.085z"/>
	<path fill="#C32127" d="M23.926,15.002c-0.337-2.667-0.496-5.057-0.561-7.057c-9.17,0.812-14.534,4.852-14.534,4.852
		s-0.28,0.152-0.666,0.346c-0.881,1.119-1.691,2.296-2.417,3.527c0.149,1.782,1.01,8.04,5.842,14.866
		c0.428-0.261,0.93-0.419,1.47-0.419c0.2,0,0.394,0.021,0.581,0.06c2.307-4.053,5.356-8.267,9.362-12.212
		c-0.292-0.444-0.463-0.974-0.463-1.543C22.54,16.39,23.099,15.497,23.926,15.002z"/>
	<path fill="#C32127" d="M38.203,48.876c-7.932-9.27-11.695-19.874-13.436-28.692c-0.188-0.041-0.367-0.101-0.539-0.178
		c-3.252,3.273-6.372,7.241-9.079,12.035c0.463,0.504,0.754,1.17,0.754,1.908c0,0.731-0.285,1.39-0.74,1.893
		c4.704,4.895,11.742,9.66,22.303,12.904c0,0,0.255,0.079,0.688,0.208C38.171,48.928,38.186,48.901,38.203,48.876z"/>
</g>
</svg>
